<svg xmlns="http://www.w3.org/2000/svg" viewBox="0 0 32 32" width="32" height="32"><defs><clipPath id="a"><path d="M0 0h32v32H0z"/></clipPath></defs><g clip-path="url(#a)"><path d="M23.171 29.189v-1.122a.208.208 0 00-.208-.208H9.067a.208.208 0 00-.208.208v1.122c0 .115.093.209.208.209h13.896a.209.209 0 00.208-.209zM6.106 24.442v.577c0 .23.187.417.417.417H7.1c.23 0 .417-.187.417-.417v-.577a.417.417 0 00-.417-.417h-.577a.417.417 0 00-.417.417zm1.843 0v.577c0 .23.187.417.416.417h.578c.23 0 .416-.187.416-.417v-.577a.417.417 0 00-.416-.417h-.578a.417.417 0 00-.416.417zm1.843 0v.577c0 .23.186.417.416.417h.578c.23 0 .416-.187.416-.417v-.577a.417.417 0 00-.416-.417h-.578a.417.417 0 00-.416.417zm1.842 0v.577c0 .23.187.417.417.417h.577c.23 0 .417-.187.417-.417v-.577a.417.417 0 00-.417-.417h-.577a.417.417 0 00-.417.417zm1.843 0v.577c0 .23.187.417.417.417h.577c.23 0 .417-.187.417-.417v-.577a.417.417 0 00-.417-.417h-.577a.417.417 0 00-.417.417zm1.843 0v.577c0 .23.186.417.417.417h.577c.23 0 .417-.187.417-.417v-.577a.417.417 0 00-.417-.417h-.577a.417.417 0 00-.417.417zm1.843 0v.577c0 .23.187.417.416.417h.577c.23 0 .417-.187.417-.417v-.577a.417.417 0 00-.417-.417h-.577a.417.417 0 00-.416.417zm1.843 0v.577c0 .23.186.417.416.417h.577c.23 0 .417-.187.417-.417v-.577a.417.417 0 00-.417-.417h-.577a.417.417 0 00-.416.417zm1.842 0v.577c0 .23.187.417.417.417h.577c.23 0 .417-.187.417-.417v-.577a.417.417 0 00-.417-.417h-.577a.417.417 0 00-.417.417zm1.843 0v.577c0 .23.186.417.416.417h.578c.23 0 .416-.187.416-.417v-.577a.417.417 0 00-.416-.417h-.578a.417.417 0 00-.416.417zm1.843 0v.577c0 .23.186.417.416.417h.578a.417.417 0 00.416-.417v-.577a.417.417 0 00-.416-.417h-.578a.417.417 0 00-.416.417zM5.181 22.543v.578c0 .23.186.416.416.416h.578c.23 0 .416-.186.416-.416v-.578a.416.416 0 00-.416-.416h-.578a.416.416 0 00-.416.416zm1.843 0v.578c0 .23.186.416.416.416h.577a.416.416 0 00.417-.416v-.578a.417.417 0 00-.417-.416H7.44a.416.416 0 00-.416.416zm1.842 0v.578c0 .23.187.416.417.416h.577c.23 0 .417-.186.417-.416v-.578a.417.417 0 00-.417-.416h-.577a.417.417 0 00-.417.416zm1.843 0v.578c0 .23.187.416.417.416h.577c.23 0 .416-.186.416-.416v-.578a.416.416 0 00-.416-.416h-.577a.417.417 0 00-.417.416zm1.843 0v.578c0 .23.186.416.416.416h.578c.23 0 .416-.186.416-.416v-.578a.416.416 0 00-.416-.416h-.578a.416.416 0 00-.416.416zm1.842 0v.578c0 .23.187.416.417.416h.577c.23 0 .416-.186.416-.416v-.578a.416.416 0 00-.416-.416h-.577a.417.417 0 00-.417.416zm1.843 0v.578c0 .23.187.416.417.416h.577c.23 0 .417-.186.417-.416v-.578a.417.417 0 00-.417-.416h-.577a.417.417 0 00-.417.416zm1.843 0v.578c0 .23.186.416.416.416h.578a.416.416 0 00.416-.416v-.578a.417.417 0 00-.416-.416h-.578a.416.416 0 00-.416.416zm1.843 0v.578c0 .23.186.416.416.416h.578c.23 0 .416-.186.416-.416v-.578a.416.416 0 00-.416-.416h-.578a.416.416 0 00-.416.416zm1.842 0v.578c0 .23.187.416.417.416h.577c.23 0 .417-.186.417-.416v-.578a.417.417 0 00-.417-.416h-.577a.417.417 0 00-.417.416zm1.843 0v.578c0 .23.187.416.417.416h.577c.23 0 .416-.186.416-.416v-.578a.416.416 0 00-.416-.416h-.577a.417.417 0 00-.417.416zm1.843 0v.578c0 .23.186.416.416.416h.577a.416.416 0 00.417-.416v-.578a.417.417 0 00-.417-.416h-.577a.416.416 0 00-.416.416zm-3.686 3.797v.578c0 .23.187.416.417.416h.577c.23 0 .417-.186.417-.416v-.578a.417.417 0 00-.417-.416h-.577a.417.417 0 00-.417.416zm1.843 0v.578c0 .23.187.416.416.416h.578c.23 0 .416-.186.416-.416v-.578a.416.416 0 00-.416-.416h-.578a.417.417 0 00-.416.416zm-16.584 0v.578c0 .23.186.416.416.416h.577c.23 0 .417-.186.417-.416v-.578a.417.417 0 00-.417-.416H7.44a.416.416 0 00-.416.416zm1.842 0v.578c0 .23.187.416.417.416h.577c.23 0 .416-.186.416-.416v-.578a.416.416 0 00-.416-.416h-.577a.417.417 0 00-.417.416zm1.843 0v.578c0 .23.186.416.416.416h.578c.23 0 .416-.186.416-.416v-.578a.416.416 0 00-.416-.416h-.578a.416.416 0 00-.416.416zm1.842 0v.578c0 .23.187.416.417.416h.577a.416.416 0 00.417-.416v-.578a.417.417 0 00-.417-.416h-.577a.417.417 0 00-.417.416zm1.843 0v.578c0 .23.187.416.417.416h.577c.23 0 .417-.186.417-.416v-.578a.417.417 0 00-.417-.416h-.577a.417.417 0 00-.417.416zm1.843 0v.578c0 .23.187.416.417.416h.577c.23 0 .417-.186.417-.416v-.578a.417.417 0 00-.417-.416h-.577a.417.417 0 00-.417.416zm1.842 0v.578c0 .23.187.416.417.416h.577c.23 0 .417-.186.417-.416v-.578a.417.417 0 00-.417-.416h-.577a.417.417 0 00-.417.416zm1.843 0v.578c0 .23.187.416.417.416h.578c.23 0 .415-.186.415-.416v-.578a.415.415 0 00-.415-.416h-.578a.417.417 0 00-.417.416zm5.001-14.168h-1.656a.501.501 0 01-.467.266h-1.404a.502.502 0 01-.467-.266h-9.844a.5.5 0 01-.467.266H9.215a.5.5 0 01-.467-.266h-1.62l.002 2.852h6.1c.779 0 1.411.584 1.411 1.304 0 .721-.632 1.305-1.411 1.305l-2.128-.001c-.78 0-1.412.583-1.412 1.304 0 .72.632 1.304 1.412 1.304h9.847c.78 0 1.412-.584 1.412-1.304 0-.721-.632-1.304-1.412-1.304l-2.129.001c-.779 0-1.411-.584-1.411-1.305 0-.72.632-1.304 1.411-1.304h6.101l.002-2.852zm.007-10.259H7.122l.006 9.729h1.62a.501.501 0 01.467-.266h1.404c.231 0 .386.113.467.266h9.843a.502.502 0 01.467-.266H22.8c.231 0 .386.113.467.266h1.657l.006-9.729zM1.929 10.489a.531.531 0 00-.531.531v.421h2.778v-.952H1.929zm28.141 0h-2.246v.952h2.778v-.421a.532.532 0 00-.532-.531zm-2.255-1.511l-.002 1.113h2.257a.93.93 0 01.93.929v2.505a.93.93 0 01-.93.93h-2.257v13.55a2.5 2.5 0 01-2.499 2.499H6.686a2.5 2.5 0 01-2.499-2.499v-13.55H1.929a.93.93 0 01-.929-.93V11.02a.93.93 0 01.929-.93h2.257l-.001-1.113c0-.293.238-.531.531-.531h1.99v-6.95h18.588v6.95h1.989a.532.532 0 01.532.532z"/></g></svg>