<svg xmlns="http://www.w3.org/2000/svg" viewBox="0 0 32 32" width="32" height="32"><defs><clipPath id="a"><path d="M0 0h32v32H0z"/></clipPath></defs><g clip-path="url(#a)"><path d="M8.699 4.851c0 1.042-.424 2-1.097 2.695l-.028.029A3.847 3.847 0 014.85 8.7a3.847 3.847 0 01-2.724-1.125 3.853 3.853 0 010-5.444A3.844 3.844 0 014.85 1.005a3.844 3.844 0 013.849 3.846zM31 19.89v10.657a.448.448 0 01-.452.448h-5.821a.455.455 0 01-.459-.448v-9.446c0-1.087-.057-2.318-.47-3.237-.378-.854-1.09-1.466-2.414-1.466-1.371 0-2.15.527-2.58 1.306-.46.854-.574 2.026-.574 3.231v9.612a.455.455 0 01-.452.448h-5.661a.452.452 0 01-.45-.448V11.152c0-.245.204-.452.45-.452h5.417a.46.46 0 01.453.452v1.372c.428-.434.965-.8 1.596-1.09 1.004-.47 2.259-.734 3.736-.734 2.6 0 4.357.621 5.531 1.728 1.183 1.118 1.754 2.694 1.998 4.629.057.422.095.882.113 1.369.029.489.039.975.039 1.464zM8.699 11.152v19.395a.456.456 0 01-.458.448H1.46a.456.456 0 01-.46-.448V11.152a.46.46 0 01.46-.452h6.781a.46.46 0 01.458.452z" fill-rule="evenodd"/></g></svg>