<svg xmlns="http://www.w3.org/2000/svg" viewBox="0 0 32 32" width="32" height="32"><defs><clipPath id="a"><path d="M0 0h32v32H0z"/></clipPath></defs><g clip-path="url(#a)"><path d="M28.334 26.179c-1.411-4.853-4.018-5.02-4.579-5.151a6.248 6.248 0 00-.197-.042c-1.703-1.573-.541-8.141-.541-8.141 0-10.011-6.771-9.026-6.771-9.026L16 3.808l-.245.011s-6.772-.985-6.772 9.026c0 0 1.162 6.568-.54 8.141a5.7 5.7 0 00-.197.042c-.562.131-3.168.298-4.58 5.151a2.656 2.656 0 00.188 1.964C5.009 30.328 11.088 31.001 16 31c4.913.001 10.992-.672 12.147-2.857.31-.588.377-1.304.187-1.964zm-6.965-13.755c.02.003.039.01.058.018.255.119.364.713.242 1.39-.092.52-.296.947-.511 1.13-.086.073-.174.107-.258.092a.245.245 0 01-.129-.067c-.476 1.478-1.385 2.951-2.533 3.837-.669.517-1.419.833-2.212.833-.798 0-1.553-.321-2.225-.843-1.141-.886-2.045-2.354-2.519-3.827a.252.252 0 01-.129.067c-.098.018-.202-.031-.3-.13-.201-.201-.384-.606-.47-1.092-.115-.639-.024-1.203.201-1.365a.242.242 0 01.099-.043c.081-.014.165.017.248.084l.002-.02c.029-.278.399-3.391 2.729-3.176l7.129 3.67m-.426 8.203C19.753 21.969 18.03 23.1 16 23.1c-2.03 0-3.752-1.132-4.365-1.915a1.07 1.07 0 01-.234-.528c.031-.01.102-.035.194-.078.038-.017.08-.037.123-.06.371-.194.917-.601.917-1.316h.001c.586.581 1.237 1.04 1.933 1.316a3.93 3.93 0 001.457.289c.502 0 .99-.104 1.458-.289.69-.273 1.336-.727 1.917-1.3l.012.006c.015.921.938 1.325 1.188 1.417l-.001.016a1.072 1.072 0 01-.235.527z"/><path d="M24.53 4.549l-8.353-3.476a.253.253 0 00-.355 0L7.469 4.549a.251.251 0 000 .355l.623.36-.039.55a.453.453 0 00-.063.877l-.365 5.103.503 1.509.503-1.509-.364-5.103a.453.453 0 00-.063-.877l-.036-.506.871.505.036.02.692.401-.189 2.41 5.239 1.935c1.183.465 1.183.465 2.367 0l4.897-1.738-.237-2.382.74-.428.376-.218 1.571-.909a.25.25 0 00-.001-.355z"/></g></svg>