<svg xmlns="http://www.w3.org/2000/svg" viewBox="0 0 32 32" width="32" height="32"><defs><clipPath id="a"><path d="M0 0h32v32H0z"/></clipPath></defs><g clip-path="url(#a)"><path d="M28.166 9.976v.708c0 8.269-6.142 17.718-17.717 17.718-3.543 0-6.851-.945-9.449-2.836h1.418c2.834 0 5.67-.945 7.795-2.599-2.834 0-4.961-1.889-5.906-4.252H5.49c.471 0 1.18 0 1.651-.235-2.834-.472-4.959-3.07-4.959-6.142.945.473 1.89.709 2.834.709-1.653-1.18-2.834-3.071-2.834-5.197 0-1.18.236-2.127.945-3.071 3.07 3.78 7.559 6.141 12.756 6.379 0-.474-.237-.945-.237-1.418 0-3.543 2.835-6.142 6.141-6.142 1.891 0 3.307.709 4.49 1.89 1.416-.236 2.834-.709 4.014-1.416-.471 1.416-1.416 2.598-2.834 3.543 1.18-.238 2.363-.474 3.543-.945-.473 1.18-1.654 2.361-2.834 3.306z"/></g></svg>