<svg xmlns="http://www.w3.org/2000/svg" viewBox="0 0 32 32" width="32" height="32"><defs><clipPath id="a"><path d="M0 0h32v32H0z"/></clipPath></defs><g clip-path="url(#a)"><path d="M27.46 2.001c-.161.008-23.482 15.087-23.482 15.087a.956.956 0 0 0-.418.881c.036.34.275.65.593.773l7.176 2.743v7.597a.956.956 0 0 0 .547.837.955.955 0 0 0 .99-.136l6.213-5.331 6.232 2.383c.54.207 1.218-.222 1.264-.797l1.867-23.035c.04-.528-.454-1.031-.982-1.002zm-1.147 4.018l-1.507 18.628-10.881-4.164L26.313 6.019zm-3.209.875L12.068 19.773l-5.542-2.12L23.104 6.894zm-9.908 15.311l3.919 1.498-3.919 3.356v-4.854z"/></g></svg>