<?xml version="1.0" encoding="UTF-8" standalone="no"?><!-- Generator: Gravit.io --><svg xmlns="http://www.w3.org/2000/svg" xmlns:xlink="http://www.w3.org/1999/xlink" style="isolation:isolate" viewBox="0 0 32 32" width="32" height="32"><defs><clipPath id="_clipPath_Dp43RKxVbOkMlzpfeTIWyebmTAnlyZhO"><rect width="32" height="32"/></clipPath></defs><g clip-path="url(#_clipPath_Dp43RKxVbOkMlzpfeTIWyebmTAnlyZhO)"><path d=" M 23.171 29.189 L 23.171 28.067 C 23.171 27.952 23.078 27.859 22.963 27.859 L 9.067 27.859 C 8.952 27.859 8.859 27.952 8.859 28.067 L 8.859 29.189 C 8.859 29.304 8.952 29.398 9.067 29.398 L 22.963 29.398 C 23.078 29.398 23.171 29.304 23.171 29.189 Z  M 6.106 24.442 L 6.106 25.019 C 6.106 25.249 6.293 25.436 6.523 25.436 L 7.1 25.436 C 7.33 25.436 7.517 25.249 7.517 25.019 L 7.517 24.442 C 7.517 24.212 7.33 24.025 7.1 24.025 L 6.523 24.025 C 6.293 24.025 6.106 24.212 6.106 24.442 Z  M 7.949 24.442 L 7.949 25.019 C 7.949 25.249 8.136 25.436 8.365 25.436 L 8.943 25.436 C 9.173 25.436 9.359 25.249 9.359 25.019 L 9.359 24.442 C 9.359 24.212 9.173 24.025 8.943 24.025 L 8.365 24.025 C 8.136 24.025 7.949 24.212 7.949 24.442 Z  M 9.792 24.442 L 9.792 25.019 C 9.792 25.249 9.978 25.436 10.208 25.436 L 10.786 25.436 C 11.016 25.436 11.202 25.249 11.202 25.019 L 11.202 24.442 C 11.202 24.212 11.016 24.025 10.786 24.025 L 10.208 24.025 C 9.978 24.025 9.792 24.212 9.792 24.442 Z  M 11.634 24.442 L 11.634 25.019 C 11.634 25.249 11.821 25.436 12.051 25.436 L 12.628 25.436 C 12.858 25.436 13.045 25.249 13.045 25.019 L 13.045 24.442 C 13.045 24.212 12.858 24.025 12.628 24.025 L 12.051 24.025 C 11.821 24.025 11.634 24.212 11.634 24.442 Z  M 13.477 24.442 L 13.477 25.019 C 13.477 25.249 13.664 25.436 13.894 25.436 L 14.471 25.436 C 14.701 25.436 14.888 25.249 14.888 25.019 L 14.888 24.442 C 14.888 24.212 14.701 24.025 14.471 24.025 L 13.894 24.025 C 13.664 24.025 13.477 24.212 13.477 24.442 Z  M 15.32 24.442 L 15.32 25.019 C 15.32 25.249 15.506 25.436 15.737 25.436 L 16.314 25.436 C 16.544 25.436 16.731 25.249 16.731 25.019 L 16.731 24.442 C 16.731 24.212 16.544 24.025 16.314 24.025 L 15.737 24.025 C 15.506 24.025 15.32 24.212 15.32 24.442 Z  M 17.163 24.442 L 17.163 25.019 C 17.163 25.249 17.35 25.436 17.579 25.436 L 18.156 25.436 C 18.386 25.436 18.573 25.249 18.573 25.019 L 18.573 24.442 C 18.573 24.212 18.386 24.025 18.156 24.025 L 17.579 24.025 C 17.349 24.025 17.163 24.212 17.163 24.442 Z  M 19.006 24.442 L 19.006 25.019 C 19.006 25.249 19.192 25.436 19.422 25.436 L 19.999 25.436 C 20.229 25.436 20.416 25.249 20.416 25.019 L 20.416 24.442 C 20.416 24.212 20.229 24.025 19.999 24.025 L 19.422 24.025 C 19.192 24.025 19.006 24.212 19.006 24.442 Z  M 20.848 24.442 L 20.848 25.019 C 20.848 25.249 21.035 25.436 21.265 25.436 L 21.842 25.436 C 22.072 25.436 22.259 25.249 22.259 25.019 L 22.259 24.442 C 22.259 24.212 22.072 24.025 21.842 24.025 L 21.265 24.025 C 21.035 24.025 20.848 24.212 20.848 24.442 Z  M 22.691 24.442 L 22.691 25.019 C 22.691 25.249 22.877 25.436 23.107 25.436 L 23.685 25.436 C 23.915 25.436 24.101 25.249 24.101 25.019 L 24.101 24.442 C 24.101 24.212 23.915 24.025 23.685 24.025 L 23.107 24.025 C 22.877 24.025 22.691 24.212 22.691 24.442 Z  M 24.534 24.442 L 24.534 25.019 C 24.534 25.249 24.72 25.436 24.95 25.436 L 25.528 25.436 C 25.757 25.436 25.944 25.249 25.944 25.019 L 25.944 24.442 C 25.944 24.212 25.757 24.025 25.528 24.025 L 24.95 24.025 C 24.72 24.025 24.534 24.212 24.534 24.442 Z  M 5.181 22.543 L 5.181 23.121 C 5.181 23.351 5.367 23.537 5.597 23.537 L 6.175 23.537 C 6.405 23.537 6.591 23.351 6.591 23.121 L 6.591 22.543 C 6.591 22.314 6.405 22.127 6.175 22.127 L 5.597 22.127 C 5.367 22.127 5.181 22.313 5.181 22.543 Z  M 7.024 22.543 L 7.024 23.121 C 7.024 23.351 7.21 23.537 7.44 23.537 L 8.017 23.537 C 8.248 23.537 8.434 23.351 8.434 23.121 L 8.434 22.543 C 8.434 22.314 8.248 22.127 8.017 22.127 L 7.44 22.127 C 7.21 22.127 7.024 22.313 7.024 22.543 Z  M 8.866 22.543 L 8.866 23.121 C 8.866 23.351 9.053 23.537 9.283 23.537 L 9.86 23.537 C 10.09 23.537 10.277 23.351 10.277 23.121 L 10.277 22.543 C 10.277 22.314 10.09 22.127 9.86 22.127 L 9.283 22.127 C 9.053 22.127 8.866 22.313 8.866 22.543 Z  M 10.709 22.543 L 10.709 23.121 C 10.709 23.351 10.896 23.537 11.126 23.537 L 11.703 23.537 C 11.933 23.537 12.119 23.351 12.119 23.121 L 12.119 22.543 C 12.119 22.314 11.933 22.127 11.703 22.127 L 11.126 22.127 C 10.896 22.127 10.709 22.313 10.709 22.543 Z  M 12.552 22.543 L 12.552 23.121 C 12.552 23.351 12.738 23.537 12.968 23.537 L 13.546 23.537 C 13.776 23.537 13.962 23.351 13.962 23.121 L 13.962 22.543 C 13.962 22.314 13.776 22.127 13.546 22.127 L 12.968 22.127 C 12.738 22.127 12.552 22.313 12.552 22.543 Z  M 14.394 22.543 L 14.394 23.121 C 14.394 23.351 14.581 23.537 14.811 23.537 L 15.388 23.537 C 15.618 23.537 15.804 23.351 15.804 23.121 L 15.804 22.543 C 15.804 22.314 15.618 22.127 15.388 22.127 L 14.811 22.127 C 14.581 22.127 14.394 22.313 14.394 22.543 Z  M 16.237 22.543 L 16.237 23.121 C 16.237 23.351 16.424 23.537 16.654 23.537 L 17.231 23.537 C 17.461 23.537 17.648 23.351 17.648 23.121 L 17.648 22.543 C 17.648 22.314 17.461 22.127 17.231 22.127 L 16.654 22.127 C 16.424 22.127 16.237 22.313 16.237 22.543 Z  M 18.08 22.543 L 18.08 23.121 C 18.08 23.351 18.266 23.537 18.496 23.537 L 19.074 23.537 C 19.303 23.537 19.49 23.351 19.49 23.121 L 19.49 22.543 C 19.49 22.314 19.303 22.127 19.074 22.127 L 18.496 22.127 C 18.266 22.127 18.08 22.313 18.08 22.543 Z  M 19.923 22.543 L 19.923 23.121 C 19.923 23.351 20.109 23.537 20.339 23.537 L 20.917 23.537 C 21.147 23.537 21.333 23.351 21.333 23.121 L 21.333 22.543 C 21.333 22.314 21.147 22.127 20.917 22.127 L 20.339 22.127 C 20.109 22.127 19.923 22.313 19.923 22.543 Z  M 21.765 22.543 L 21.765 23.121 C 21.765 23.351 21.952 23.537 22.182 23.537 L 22.759 23.537 C 22.989 23.537 23.176 23.351 23.176 23.121 L 23.176 22.543 C 23.176 22.314 22.989 22.127 22.759 22.127 L 22.182 22.127 C 21.952 22.127 21.765 22.313 21.765 22.543 Z  M 23.608 22.543 L 23.608 23.121 C 23.608 23.351 23.795 23.537 24.025 23.537 L 24.602 23.537 C 24.832 23.537 25.018 23.351 25.018 23.121 L 25.018 22.543 C 25.018 22.314 24.832 22.127 24.602 22.127 L 24.025 22.127 C 23.795 22.127 23.608 22.313 23.608 22.543 Z  M 25.451 22.543 L 25.451 23.121 C 25.451 23.351 25.637 23.537 25.867 23.537 L 26.444 23.537 C 26.675 23.537 26.861 23.351 26.861 23.121 L 26.861 22.543 C 26.861 22.314 26.675 22.127 26.444 22.127 L 25.867 22.127 C 25.637 22.127 25.451 22.313 25.451 22.543 Z  M 21.765 26.34 L 21.765 26.918 C 21.765 27.148 21.952 27.334 22.182 27.334 L 22.759 27.334 C 22.989 27.334 23.176 27.148 23.176 26.918 L 23.176 26.34 C 23.176 26.111 22.989 25.924 22.759 25.924 L 22.182 25.924 C 21.952 25.924 21.765 26.111 21.765 26.34 Z  M 23.608 26.34 L 23.608 26.918 C 23.608 27.148 23.795 27.334 24.024 27.334 L 24.602 27.334 C 24.832 27.334 25.018 27.148 25.018 26.918 L 25.018 26.34 C 25.018 26.111 24.832 25.924 24.602 25.924 L 24.024 25.924 C 23.795 25.924 23.608 26.111 23.608 26.34 Z  M 7.024 26.34 L 7.024 26.918 C 7.024 27.148 7.21 27.334 7.44 27.334 L 8.017 27.334 C 8.247 27.334 8.434 27.148 8.434 26.918 L 8.434 26.34 C 8.434 26.111 8.247 25.924 8.017 25.924 L 7.44 25.924 C 7.21 25.924 7.024 26.111 7.024 26.34 Z  M 8.866 26.34 L 8.866 26.918 C 8.866 27.148 9.053 27.334 9.283 27.334 L 9.86 27.334 C 10.09 27.334 10.276 27.148 10.276 26.918 L 10.276 26.34 C 10.276 26.111 10.09 25.924 9.86 25.924 L 9.283 25.924 C 9.053 25.924 8.866 26.111 8.866 26.34 Z  M 10.709 26.34 L 10.709 26.918 C 10.709 27.148 10.895 27.334 11.125 27.334 L 11.703 27.334 C 11.933 27.334 12.119 27.148 12.119 26.918 L 12.119 26.34 C 12.119 26.111 11.933 25.924 11.703 25.924 L 11.125 25.924 C 10.895 25.924 10.709 26.111 10.709 26.34 Z  M 12.551 26.34 L 12.551 26.918 C 12.551 27.148 12.738 27.334 12.968 27.334 L 13.545 27.334 C 13.776 27.334 13.962 27.148 13.962 26.918 L 13.962 26.34 C 13.962 26.111 13.776 25.924 13.545 25.924 L 12.968 25.924 C 12.738 25.924 12.551 26.111 12.551 26.34 Z  M 14.394 26.34 L 14.394 26.918 C 14.394 27.148 14.581 27.334 14.811 27.334 L 15.388 27.334 C 15.618 27.334 15.805 27.148 15.805 26.918 L 15.805 26.34 C 15.805 26.111 15.618 25.924 15.388 25.924 L 14.811 25.924 C 14.581 25.924 14.394 26.111 14.394 26.34 Z  M 16.237 26.34 L 16.237 26.918 C 16.237 27.148 16.424 27.334 16.654 27.334 L 17.231 27.334 C 17.461 27.334 17.648 27.148 17.648 26.918 L 17.648 26.34 C 17.648 26.111 17.461 25.924 17.231 25.924 L 16.654 25.924 C 16.424 25.924 16.237 26.111 16.237 26.34 Z  M 18.079 26.34 L 18.079 26.918 C 18.079 27.148 18.266 27.334 18.496 27.334 L 19.073 27.334 C 19.303 27.334 19.49 27.148 19.49 26.918 L 19.49 26.34 C 19.49 26.111 19.303 25.924 19.073 25.924 L 18.496 25.924 C 18.266 25.924 18.079 26.111 18.079 26.34 Z  M 19.922 26.34 L 19.922 26.918 C 19.922 27.148 20.109 27.334 20.339 27.334 L 20.917 27.334 C 21.147 27.334 21.332 27.148 21.332 26.918 L 21.332 26.34 C 21.332 26.111 21.147 25.924 20.917 25.924 L 20.339 25.924 C 20.109 25.924 19.922 26.111 19.922 26.34 Z  M 24.923 12.172 L 23.267 12.172 C 23.186 12.325 23.031 12.438 22.8 12.438 L 21.396 12.438 C 21.166 12.438 21.01 12.325 20.929 12.172 L 11.085 12.172 C 11.005 12.325 10.849 12.438 10.618 12.438 L 9.215 12.438 C 8.984 12.438 8.828 12.325 8.748 12.172 L 7.128 12.172 L 7.13 15.024 L 13.23 15.024 C 14.009 15.024 14.641 15.608 14.641 16.328 C 14.641 17.049 14.009 17.633 13.23 17.633 L 11.102 17.632 C 10.322 17.632 9.69 18.215 9.69 18.936 C 9.69 19.656 10.322 20.24 11.102 20.24 L 20.949 20.24 C 21.729 20.24 22.361 19.656 22.361 18.936 C 22.361 18.215 21.729 17.632 20.949 17.632 L 18.82 17.633 C 18.041 17.633 17.409 17.049 17.409 16.328 C 17.409 15.608 18.041 15.024 18.82 15.024 L 24.921 15.024 L 24.923 12.172 Z  M 24.93 1.913 L 7.122 1.913 L 7.128 11.642 L 8.748 11.642 C 8.829 11.489 8.984 11.376 9.215 11.376 L 10.619 11.376 C 10.85 11.376 11.005 11.489 11.086 11.642 L 20.929 11.642 C 21.01 11.489 21.166 11.376 21.396 11.376 L 22.8 11.376 C 23.031 11.376 23.186 11.489 23.267 11.642 L 24.924 11.642 L 24.93 1.913 Z  M 1.929 10.489 C 1.636 10.489 1.398 10.727 1.398 11.02 L 1.398 11.441 L 4.176 11.441 L 4.176 10.489 L 1.929 10.489 L 1.929 10.489 Z  M 30.07 10.489 L 27.824 10.489 L 27.824 11.441 L 30.602 11.441 L 30.602 11.02 C 30.602 10.727 30.363 10.489 30.07 10.489 Z  M 27.815 8.978 L 27.813 10.091 L 30.07 10.091 C 30.584 10.091 31 10.507 31 11.02 L 31 13.525 C 31 14.039 30.584 14.455 30.07 14.455 L 27.813 14.455 L 27.813 28.005 C 27.813 29.385 26.694 30.504 25.314 30.504 L 16 30.504 L 6.686 30.504 C 5.306 30.504 4.187 29.385 4.187 28.005 L 4.187 14.455 L 1.929 14.455 C 1.416 14.455 1 14.038 1 13.525 L 1 11.02 C 1 10.507 1.416 10.09 1.929 10.09 L 4.186 10.09 L 4.185 8.977 C 4.185 8.684 4.423 8.446 4.716 8.446 L 6.706 8.446 L 6.706 1.496 L 16 1.496 L 25.294 1.496 L 25.294 8.446 L 27.283 8.446 C 27.577 8.447 27.815 8.684 27.815 8.978 Z " fill="rgb(0,0,0)"/></g></svg>
