<?xml version="1.0" encoding="UTF-8" standalone="no"?><!-- Generator: Gravit.io --><svg xmlns="http://www.w3.org/2000/svg" xmlns:xlink="http://www.w3.org/1999/xlink" style="isolation:isolate" viewBox="0 0 32 32" width="32" height="32"><defs><clipPath id="_clipPath_wAP3gFuHTp2rEswYE8yeJTDuVrgzWa1p"><rect width="32" height="32"/></clipPath></defs><g clip-path="url(#_clipPath_wAP3gFuHTp2rEswYE8yeJTDuVrgzWa1p)"><path d=" M 28.166 9.976 L 28.166 10.684 C 28.166 18.953 22.024 28.402 10.449 28.402 C 6.906 28.402 3.598 27.457 1 25.566 L 2.418 25.566 C 5.252 25.566 8.088 24.621 10.213 22.967 C 7.379 22.967 5.252 21.078 4.307 18.715 L 5.49 18.715 C 5.961 18.715 6.67 18.715 7.141 18.48 C 4.307 18.008 2.182 15.41 2.182 12.338 C 3.127 12.811 4.072 13.047 5.016 13.047 C 3.363 11.867 2.182 9.976 2.182 7.85 C 2.182 6.67 2.418 5.723 3.127 4.779 C 6.197 8.559 10.686 10.92 15.883 11.158 C 15.883 10.684 15.646 10.213 15.646 9.74 C 15.646 6.197 18.481 3.598 21.787 3.598 C 23.678 3.598 25.094 4.307 26.277 5.488 C 27.693 5.252 29.111 4.779 30.291 4.072 C 29.82 5.488 28.875 6.67 27.457 7.615 C 28.637 7.377 29.82 7.141 31 6.67 C 30.527 7.85 29.346 9.031 28.166 9.976 Z " fill="rgb(0,0,0)"/></g></svg>
