<?xml version="1.0" encoding="UTF-8" standalone="no"?><!-- Generator: Gravit.io --><svg xmlns="http://www.w3.org/2000/svg" xmlns:xlink="http://www.w3.org/1999/xlink" style="isolation:isolate" viewBox="0 0 32 32" width="32" height="32"><defs><clipPath id="_clipPath_lnlgLMXsqejjRo5kwdzT7Su0z8jKux7p"><rect width="32" height="32"/></clipPath></defs><g clip-path="url(#_clipPath_lnlgLMXsqejjRo5kwdzT7Su0z8jKux7p)"><g><path d=" M 8.699 4.851 C 8.699 5.893 8.275 6.851 7.602 7.546 L 7.574 7.575 C 6.878 8.27 5.912 8.7 4.85 8.7 C 3.789 8.7 2.821 8.27 2.126 7.575 C 1.432 6.879 1 5.913 1 4.851 C 1 3.79 1.432 2.824 2.126 2.131 C 2.821 1.435 3.789 1.005 4.85 1.005 C 5.912 1.005 6.878 1.435 7.574 2.131 C 8.269 2.824 8.699 3.792 8.699 4.851 Z  M 31 19.89 L 31 30.547 C 31 30.792 30.803 30.995 30.548 30.995 L 24.727 30.995 C 24.473 30.995 24.268 30.792 24.268 30.547 L 24.268 21.101 C 24.268 20.014 24.211 18.783 23.798 17.864 C 23.42 17.01 22.708 16.398 21.384 16.398 C 20.013 16.398 19.234 16.925 18.804 17.704 C 18.344 18.558 18.23 19.73 18.23 20.935 L 18.23 30.547 C 18.23 30.792 18.023 30.995 17.778 30.995 L 12.117 30.995 C 11.871 30.995 11.667 30.792 11.667 30.547 L 11.667 11.152 C 11.667 10.907 11.871 10.7 12.117 10.7 L 17.534 10.7 C 17.778 10.7 17.987 10.907 17.987 11.152 L 17.987 12.524 C 18.415 12.09 18.952 11.724 19.583 11.434 C 20.587 10.964 21.842 10.7 23.319 10.7 C 25.919 10.7 27.676 11.321 28.85 12.428 C 30.033 13.546 30.604 15.122 30.848 17.057 C 30.905 17.479 30.943 17.939 30.961 18.426 C 30.99 18.915 31 19.401 31 19.89 Z  M 8.699 11.152 L 8.699 30.547 C 8.699 30.792 8.492 30.995 8.241 30.995 L 1.46 30.995 C 1.207 30.995 1 30.792 1 30.547 L 1 11.152 C 1 10.907 1.207 10.7 1.46 10.7 L 8.241 10.7 C 8.492 10.7 8.699 10.907 8.699 11.152 Z " fill-rule="evenodd" fill="rgb(0,0,0)"/></g></g></svg>
