<?xml version="1.0" encoding="UTF-8" standalone="no"?><!-- Generator: Gravit.io --><svg xmlns="http://www.w3.org/2000/svg" xmlns:xlink="http://www.w3.org/1999/xlink" style="isolation:isolate" viewBox="0 0 32 32" width="32" height="32"><defs><clipPath id="_clipPath_w0Rn4NAZ0trHB9vxtMP2IDMQ762KiDCe"><rect width="32" height="32"/></clipPath></defs><g clip-path="url(#_clipPath_w0Rn4NAZ0trHB9vxtMP2IDMQ762KiDCe)"><g><path d=" M 28.334 26.179 C 26.923 21.326 24.316 21.159 23.755 21.028 C 23.69 21.013 23.624 20.999 23.558 20.986 C 21.855 19.413 23.017 12.845 23.017 12.845 C 23.017 2.834 16.246 3.819 16.246 3.819 C 16.163 3.815 16.081 3.811 16 3.808 C 15.92 3.811 15.838 3.815 15.755 3.819 C 15.755 3.819 8.983 2.834 8.983 12.845 C 8.983 12.845 10.145 19.413 8.443 20.986 C 8.376 20.999 8.311 21.013 8.246 21.028 C 7.684 21.159 5.078 21.326 3.666 26.179 C 3.475 26.839 3.543 27.555 3.854 28.143 C 5.009 30.328 11.088 31.001 16 31 C 20.913 31.001 26.992 30.328 28.147 28.143 C 28.457 27.555 28.524 26.839 28.334 26.179 Z  M 21.369 12.424 C 21.389 12.427 21.408 12.434 21.427 12.442 C 21.682 12.561 21.791 13.155 21.669 13.832 C 21.577 14.352 21.373 14.779 21.158 14.962 C 21.072 15.035 20.984 15.069 20.9 15.054 C 20.852 15.046 20.809 15.023 20.771 14.987 C 20.295 16.465 19.386 17.938 18.238 18.824 C 17.569 19.341 16.819 19.657 16.026 19.657 C 15.228 19.657 14.473 19.336 13.801 18.814 C 12.66 17.928 11.756 16.46 11.282 14.987 C 11.243 15.023 11.2 15.046 11.153 15.054 C 11.055 15.072 10.951 15.023 10.853 14.924 C 10.652 14.723 10.469 14.318 10.383 13.832 C 10.268 13.193 10.359 12.629 10.584 12.467 C 10.615 12.445 10.648 12.43 10.683 12.424 C 10.764 12.41 10.848 12.441 10.931 12.508 L 10.931 12.508 L 10.931 12.508 C 10.931 12.508 10.931 12.501 10.933 12.488 C 10.962 12.21 11.332 9.097 13.662 9.312 L 20.791 12.982 M 20.365 21.185 C 19.753 21.969 18.03 23.1 16 23.1 C 13.97 23.1 12.248 21.968 11.635 21.185 C 11.504 21.017 11.423 20.84 11.401 20.657 C 11.401 20.657 11.401 20.657 11.401 20.657 C 11.432 20.647 11.503 20.622 11.595 20.579 C 11.633 20.562 11.675 20.542 11.718 20.519 C 12.089 20.325 12.635 19.918 12.635 19.203 C 12.636 19.203 12.636 19.203 12.636 19.203 C 13.222 19.784 13.873 20.243 14.569 20.519 C 15.037 20.705 15.525 20.808 16.026 20.808 C 16.528 20.808 17.016 20.704 17.484 20.519 C 18.174 20.246 18.82 19.792 19.401 19.219 C 19.406 19.221 19.409 19.223 19.413 19.225 C 19.428 20.146 20.351 20.55 20.601 20.642 C 20.601 20.648 20.6 20.652 20.6 20.658 C 20.578 20.84 20.496 21.017 20.365 21.185 Z " fill="rgb(0,0,0)"/><path d=" M 24.53 4.549 L 16.177 1.073 C 16.079 0.976 15.92 0.976 15.822 1.073 L 7.469 4.549 C 7.371 4.647 7.371 4.806 7.469 4.904 L 8.092 5.264 L 8.053 5.814 C 7.839 5.85 7.676 6.036 7.676 6.26 C 7.676 6.462 7.808 6.633 7.99 6.691 L 7.625 11.794 L 8.128 13.303 L 8.631 11.794 L 8.267 6.691 C 8.449 6.632 8.581 6.462 8.581 6.26 C 8.581 6.036 8.418 5.85 8.204 5.814 L 8.168 5.308 L 9.039 5.813 L 9.075 5.833 L 9.767 6.234 L 9.578 8.644 L 14.817 10.579 C 16 11.044 16 11.044 17.184 10.579 L 22.081 8.841 L 21.844 6.459 L 22.584 6.031 L 22.96 5.813 L 24.531 4.904 C 24.629 4.806 24.629 4.647 24.53 4.549 Z " fill="rgb(0,0,0)"/></g></g></svg>
